<svg width="105" height="105" viewBox="0 0 105 105" fill="none" xmlns="http://www.w3.org/2000/svg">
<path d="M35 78.75H41.5625V56.875H52.5L56.875 65.625H78.75V39.375H65.625L61.25 30.625H35V78.75ZM60.9219 59.0625L56.5469 50.3125H41.5625V37.1875H57.2031L61.5781 45.9375H72.1875V59.0625H60.9219ZM52.5 96.25C46.4479 96.25 40.7604 95.1016 35.4375 92.8047C30.1146 90.5078 25.4844 87.3906 21.5469 83.4531C17.6094 79.5156 14.4922 74.8854 12.1953 69.5625C9.89844 64.2396 8.75 58.5521 8.75 52.5C8.75 46.4479 9.89844 40.7604 12.1953 35.4375C14.4922 30.1146 17.6094 25.4844 21.5469 21.5469C25.4844 17.6094 30.1146 14.4922 35.4375 12.1953C40.7604 9.89844 46.4479 8.75 52.5 8.75C58.5521 8.75 64.2396 9.89844 69.5625 12.1953C74.8854 14.4922 79.5156 17.6094 83.4531 21.5469C87.3906 25.4844 90.5078 30.1146 92.8047 35.4375C95.1016 40.7604 96.25 46.4479 96.25 52.5C96.25 58.5521 95.1016 64.2396 92.8047 69.5625C90.5078 74.8854 87.3906 79.5156 83.4531 83.4531C79.5156 87.3906 74.8854 90.5078 69.5625 92.8047C64.2396 95.1016 58.5521 96.25 52.5 96.25ZM52.5 87.5C62.2708 87.5 70.5469 84.1094 77.3281 77.3281C84.1094 70.5469 87.5 62.2708 87.5 52.5C87.5 42.7292 84.1094 34.4531 77.3281 27.6719C70.5469 20.8906 62.2708 17.5 52.5 17.5C42.7292 17.5 34.4531 20.8906 27.6719 27.6719C20.8906 34.4531 17.5 42.7292 17.5 52.5C17.5 62.2708 20.8906 70.5469 27.6719 77.3281C34.4531 84.1094 42.7292 87.5 52.5 87.5Z" fill="#D6CC99"/>
</svg>
